<?xml version="1.0" encoding="utf-8"?>
<!-- Generator: Adobe Illustrator 16.2.0, SVG Export Plug-In . SVG Version: 6.00 Build 0)  -->
<!DOCTYPE svg PUBLIC "-//W3C//DTD SVG 1.1//EN" "http://www.w3.org/Graphics/SVG/1.1/DTD/svg11.dtd">
<svg version="1.1" id="Layer_1" xmlns="http://www.w3.org/2000/svg" xmlns:xlink="http://www.w3.org/1999/xlink"
	 viewBox="0 0 385.913 163.146" enable-background="new 0 0 385.913 163.146"
	 xml:space="preserve">
<path fill="#D34330" d="M135.628,29.407c-13.855-15.734-34.136-25.674-56.75-25.674c-41.758,0-75.609,33.852-75.609,75.609
	s33.852,75.609,75.609,75.609c22.614,0,42.895-9.94,56.75-25.674c-11.729-13.321-18.859-30.791-18.859-49.936
	S123.898,42.728,135.628,29.407z"/>
<path fill="#FF6300" d="M249.128,29.407c-13.855-15.734-34.136-25.674-56.75-25.674c-22.613,0-42.894,9.94-56.75,25.674
	c11.73,13.321,18.86,30.791,18.86,49.935s-7.13,36.614-18.86,49.936c13.856,15.733,34.137,25.674,56.75,25.674
	c22.614,0,42.895-9.94,56.75-25.674c-11.729-13.321-18.859-30.791-18.859-49.936S237.398,42.728,249.128,29.407z"/>
<path fill="#FFC200" d="M305.878,3.732c-22.613,0-42.894,9.94-56.75,25.674c11.73,13.321,18.86,30.791,18.86,49.935
	s-7.13,36.614-18.86,49.936c13.856,15.733,34.137,25.674,56.75,25.674c41.759,0,75.61-33.852,75.61-75.609
	S347.637,3.732,305.878,3.732z"/>
<path fill="#FFC200" d="M116.269,79.342c0,19.145,7.13,36.614,18.859,49.936c11.73-13.321,18.86-30.791,18.86-49.936
	s-7.13-36.614-18.86-49.936C123.398,42.728,116.269,60.197,116.269,79.342z"/>
<path fill="#D34330" d="M230.269,79.342c0,19.145,7.13,36.614,18.859,49.936c11.73-13.321,18.86-30.791,18.86-49.936
	s-7.13-36.614-18.86-49.936C237.398,42.728,230.269,60.197,230.269,79.342z"/>
<g>
	<path fill="#F2F2F2" d="M105.205,79.229c0-0.025-0.003-0.05-0.004-0.074c-0.002-0.013-0.003-0.025-0.004-0.038
		c-0.002-0.018-0.005-0.035-0.008-0.053c-0.002-0.021-0.004-0.043-0.008-0.062c0-0.003-0.001-0.006-0.001-0.008
		c-0.075-0.467-0.294-0.904-0.631-1.242c-1.925-2.281-4.216-4.312-6.544-6.166c-5.016-3.996-10.752-7.34-17.084-8.686
		c-3.659-0.777-7.342-0.811-11.02-0.152c-3.348,0.598-6.572,1.843-9.591,3.385c-4.725,2.414-9.04,5.743-12.799,9.475
		c-0.696,0.689-1.388,1.395-2.021,2.145c-0.843,0.998-0.843,2.181,0,3.18c1.925,2.281,4.215,4.311,6.544,6.166
		c5.017,3.996,10.753,7.338,17.084,8.685c3.659,0.778,7.343,0.812,11.021,0.153c3.345-0.6,6.57-1.843,9.59-3.385
		c4.724-2.416,9.04-5.743,12.8-9.475c0.695-0.691,1.387-1.395,2.02-2.145c0.337-0.338,0.557-0.774,0.631-1.242
		c0-0.002,0-0.005,0.002-0.008c0.003-0.021,0.006-0.041,0.008-0.062c0.002-0.018,0.006-0.035,0.007-0.054
		c0.001-0.013,0.003-0.024,0.003-0.037c0.002-0.024,0.004-0.048,0.006-0.073c0.002-0.038,0.003-0.075,0.003-0.113
		S105.207,79.268,105.205,79.229z M75.035,90.953c-6.414,0-11.611-5.197-11.611-11.611c0-6.412,5.197-11.611,11.611-11.611
		c6.412,0,11.611,5.197,11.611,11.611S81.447,90.953,75.035,90.953z"/>
	<circle fill="#F2F2F2" cx="75.035" cy="79.342" r="3.844"/>
</g>
<text transform="matrix(1 0 0 1 177.4146 83.1851)" fill="#F2F2F2" font-family="'STFangsong'" font-size="140">,</text>
<text transform="matrix(1 0 0 1 288.2202 102.1455)" fill="#F2F2F2" font-family="'ZapfDingbatsITC'" font-size="64">✔</text>
</svg>
