<?xml version="1.0" encoding="utf-8"?>
<!-- Generator: Adobe Illustrator 16.0.0, SVG Export Plug-In . SVG Version: 6.00 Build 0)  -->
<!DOCTYPE svg PUBLIC "-//W3C//DTD SVG 1.1//EN" "http://www.w3.org/Graphics/SVG/1.1/DTD/svg11.dtd">
<svg version="1.1" id="Layer_1" xmlns="http://www.w3.org/2000/svg" xmlns:xlink="http://www.w3.org/1999/xlink" x="0px" y="0px"
	 width="16px" height="16px" viewBox="0 0 16 16" enable-background="new 0 0 16 16" xml:space="preserve">
<path fill="#FFFFFF" d="M16,3.081c-0.107,0.226-0.307,0.512-0.598,0.856s-0.65,0.648-1.079,0.91
	c0.012,0.095,0.021,0.184,0.026,0.268c0.047,1.282-0.26,2.611-0.687,3.72c-0.825,2.059-2.091,3.717-3.897,4.842
	c-1.884,1.081-4.078,1.311-6.1,1.115C2.323,14.637,1,14.198,0,13.373c1.83,0.219,3.538-0.404,4.887-1.409
	c-1.5,0.038-2.589-1.047-3.104-2.302c0.232,0.062,0.475,0.055,0.696,0.036c0.272-0.025,0.53-0.051,0.785-0.106
	c-0.956-0.309-1.793-0.876-2.229-1.73C0.778,7.32,0.663,6.804,0.66,6.22c0.448,0.236,0.987,0.466,1.48,0.446
	C1.395,6.035,0.798,5.228,0.687,4.303C0.617,3.531,0.81,2.827,1.088,2.171c1.115,1.225,2.366,2.233,3.809,2.854
	c0.986,0.404,1.97,0.62,2.987,0.625C7.767,4.741,7.858,3.862,8.285,3.116c0.504-0.801,1.237-1.267,2.061-1.498
	c1.178-0.302,2.326,0.125,3.05,0.945c0.78-0.084,1.528-0.431,2.123-0.785c-0.253,0.765-0.745,1.526-1.463,1.891
	C14.739,3.543,15.391,3.341,16,3.081z"/>
</svg>
